<svg id="Layer_1" data-name="Layer 1" xmlns="http://www.w3.org/2000/svg" viewBox="0 0 294.23 266.51"><defs><style>.cls-1{fill-rule:evenodd;}</style></defs><path class="cls-1" d="M319.48,481.22a17.78,17.78,0,0,1,1-2.15c.15-.37.41-.63.56-1.05s.26-.75.46-1.17l1.7-3.24a3.86,3.86,0,0,1,.25-.5l.26-.51a.11.11,0,0,1,.05-.08c1.85.63,11.3,5.21,13.61,6.34.72.38,1.59.76,2.31,1.1s1.74.75,1.85,1.13v.13c-1.6.29-8.78.08-11,0-3.44,0-7.7.21-11,0Zm24.28-50.85c2.78.29,9,3.24,11.3,4.75a34.35,34.35,0,0,1,4.36,3.36,37,37,0,0,1,5.19,7.44c.31.67,1.28,3.15,1.54,3.49.82-.17,2.36-1,3.18-1.26l6.37-2.86c2.67-1.26,6.57-2.82,9.55-4.25,1.07-.5,2.1-.88,3.23-1.34a12.2,12.2,0,0,1,3.39-1.35,26.54,26.54,0,0,0,1,2.74c.3.84.71,1.85,1.07,2.69.77,1.76,1.44,3.53,2.16,5.42l6.57,16c.72,1.72,1.44,3.65,2.21,5.38s1.39,3.57,2.16,5.33l2.25,5.34c-8.11.17-16.42,0-24.54,0l-33.78,0a4.29,4.29,0,0,1-2.46-.63l-3.8-1.85L337,475.17c-2.31-1.18-10.32-4.63-11.76-5.59,0-1,8.06-17.36,9.14-19.59,1.54-3.06,3.13-6.8,4.72-9.74.82-1.56,4.16-8.45,4.67-9.88ZM164.13,468.65c.31.51.61.55,1,.84l3.24,2.31c1.54,1,3.85,2.78,5.44,3.83l2.11,1.55c1,.89,5,3.49,5.18,4l-35,.08c-.05-.5,4.36-10.76,5.28-13.19l4.11-9.75C157,455,158,452,159.61,448.61c1-2.06,1.74-4.37,2.72-6.47s1.8-4.37,2.77-6.52c.72-1.64,2-5.25,2.88-6.51,2-.21,22.64,0,26.49,0,2.31,0,6.78-.21,8.88.08,0,.51-6.26,6.52-7.14,7.4l-19.15,19.08a7.79,7.79,0,0,1-.66.58l-4.93,5c-1.34,1.43-6.62,6.56-7.34,7.48ZM305.26,412a3.76,3.76,0,0,1,.46,1.72c.62,2.56,1.13,7.35,1.75,9.75.36,1.34.41,2.6.66,3.95,1.13,5.17,2,10.29,2.93,15.42.51,2.61.87,5.17,1.39,7.73,1,4.84,1.74,10.76,2.87,15.51.41,1.68-.05,2.52,1.64,3.15a31.94,31.94,0,0,1,3.29,1.81c-.05.29-4.57,10-4.77,10.21l-14.58,0a52.37,52.37,0,0,1,0-6.39c-.06-7,.61-4.74-1.65-11.51-.46-1.51-3.23-10.67-3.64-11.39-.67-1.13-4.47-5.08-5.75-6.64l-1.54-1.93c-.57-.67-1.23-1.3-1.7-1.93-1.84-2.44-1.43-1.26-2.05-4.67l-2-11.26c-.16-1.22.41-1.34,1.43-1.89l11.81-6.47c1.8-1.1,3-1.64,4.73-2.65Zm88.15,22.06L381,439.7c-1.49.67-12,5.38-12.84,5.46-.41-.59-.67-1.55-1.08-2.18s-.92-1.43-1.33-2.1a26.39,26.39,0,0,0-5.8-6.1,35.41,35.41,0,0,0-4.21-2.81,41.33,41.33,0,0,0-6.11-2.94,42.18,42.18,0,0,0-12.07-2.61c-1.28,0-2.46,0-3.69,0-4.42.08-3.55,1.09-3.5-2.73.06-2.82.26-7,.06-9.58-.11-1.14,1.54-2,2.36-2.74l4.46-4.37,72.85-.12c-.41.5-5.59,2.48-8.16,4.28a30.87,30.87,0,0,0-4.93,4.12c-2.56,2.73-4.51,5.26-5.13,9.37-.57,3.24.05,5.42,1,8.45.15.46.41.5.51,1Zm-3.8-30.85c.72.13,1,.13,1.39.47-.16.08.25.08-.47.16a3.36,3.36,0,0,1-.71,0c-1.85-.21-5.19,0-7.24-.08-3.08,0-21.41.13-21.82-.08s-.36-.51-.41-.8l-.67-2.94c2.1-.05,5.34.54,7.55.75,3.18.3,21,2.65,22.38,2.52ZM231,379.06a3.38,3.38,0,0,1,1.7,1.22c.25.25.51.42.77.67,1.13,1.22,3.95,3.45,5.18,4.88L249,395.41a6,6,0,0,0,.77.67l3.7,3.49c.26.25.51.38.77.63l7.29,6.93a8.81,8.81,0,0,1,.67.72l5.95,5.5c.36.34.46.38.77.72l5.24,4.79a10.29,10.29,0,0,1,1.49,1.38,17.7,17.7,0,0,0,1.49,1.35,5.23,5.23,0,0,0,.77.71c.41.34.51.3.61.76a21.52,21.52,0,0,1-2.46,1.39c-.87.5-1.7.88-2.57,1.34-2.92,1.55-7.65,4-10.27,5.5L253.1,436.8c-1.8.92-3.44,1.85-5.14,2.77l-7.7,4.08c-.41.25-.87.46-1.33.71a3.34,3.34,0,0,1-1.44.59,75.45,75.45,0,0,0-.77-8.32c-.26-2.69-.56-5.42-.82-8.15-.62-5.42-1.18-11-1.64-16.39s-1.18-10.84-1.65-16.35-.87-11.17-1.59-16.68Zm60.74-17.48c1.18-.67,3.49-1.39,4.93-2l7.29-3c.82-.29,1.59-.76,2.41-1.09a51.45,51.45,0,0,1,5-1.94c.26.26.36.47.62.76l23.3,26.05a50.74,50.74,0,0,0,4.37,4.58c1.64,1,4.57,1.94,6.47,2.82.82.38,1.43.63,2.26,1,4.31,2,4.62,1.22,5.34,3.82.2.76.41,1.52.61,2.31l2.57,8.91-13.61,0c-1.54,0-1.74.25-2.15-.88a41.36,41.36,0,0,0-1.9-3.91c-1.59-3.07-2.77-5.72-4.21-8.7-.41-.88-1.23-1.18-2.62-2l-7.39-4.79c-3.75-2.56-7.19-4.53-11.14-7.27l-4.68-2.94c-.41-.25-.51-.42-.87-.67l-9.34-6.09a4.51,4.51,0,0,1-.93-.51c-.92-.75-5.9-3.74-6.36-4.41Zm57.45-1.93c.46-.38,2.87-1.14,3.85-1.64,1.28-.59,2.41-1,3.8-1.6,1.23-.59,2.51-1,3.85-1.6,1-.46,2.72-1.51,4.05-1.55,2.36,2.69,2.57,1.05,5.08,5.84,1.24,2.4,2.26,4.88,3.5,7.31,3.54,7.23,6.77,14.46,10.37,21.73.72,1.38.61,1.09,3.54,2.18,2.26.84,12,3.95,12.78,4.63.36.29,4.11,6.05,4.37,6.64-2.83-.22-22.23-2.27-23.21-2.78-1.54-.71-2.05-6.39-3.54-7.94-.21-.21-.46-.5-.72-.76-1.69-1.8-3.49-3.27-5.29-5.21a13.17,13.17,0,0,0-1.49-1.51L356.65,370c-.56-.51-1-.93-1.54-1.47s-.87-1-1.44-1.56a20.07,20.07,0,0,1-2.41-3.45c-.41-1-1.95-3.19-2.05-3.9Zm-149.92-2.94,8,5.58a8,8,0,0,0,.77.55l17.56,12.44c1.8,1.05,1.54.92,1.69,3.11.47,5.71,1,11,1.6,16.68.1,1.05.92,7.94.66,8.41a14.28,14.28,0,0,0-1.23,1.09l-3.54,3.57a7.08,7.08,0,0,0-.62.59L212.69,420c-.36.34-.77.89-1.13,1.22a3.74,3.74,0,0,0-.61.55l-3,3c-1.44,1.35-.31,1.26-3.7,1.3H182.92c-2.31,0-8.63.21-10.48-.08l5.65-3.82c.36-.26.62-.47.93-.68l8.52-5.88c1.13-.76.82-.34,1.23-1.85l1.44-7.39c.67-3.32,1.23-6.56,1.9-10,.61-3.24,1.54-6.56,2-9.79s1.23-6.81,1.9-9.88c.77-3.61,3.64-17.31,3.28-20Zm86.82,3.74-3.49-8.37,20.07-5a69.58,69.58,0,0,1,6.78-1.63c.26.25,1.08,1.55,1.44,2a7.91,7.91,0,0,1,1.28,2.23c-.77.38-2.46,1-3.29,1.34l-3.23,1.35c-1.08.46-2.26.8-3.34,1.26l-4.87,2.06c-.67.25-.93.5-1.54.71-1.75.68-9.09,3.91-9.81,4ZM358,345.4c1.33-.38,4.67-1.89,5.7-2.06a10.16,10.16,0,0,1,.77,1.35c.35.92,2.05,3.53,2.1,4.07l-8.52,3.66c-.52.25-1,.38-1.49.59s-.77.38-1.28.59c-1.8.75-3.91,1.55-5.6,2.39a49.62,49.62,0,0,1-5.7,2.4c-.36-1.31-3.08-5.76-3.34-6.56Zm-50-2.86c-3.69.89-7.44,1.77-11.14,2.69-1.8.47-3.75.84-5.59,1.35-1,.25-4.73,1.3-5.5,1.34a57.57,57.57,0,0,0-.72-6.51l-2.26-19.58c-.3-2.78-2.82-25.34-3.23-25.93-.26-.17.1,0-.31-.13l-1.28,0c-.67.05-1.18,0-1.85.09-.15.5,1.18,12,1.39,13.32.66,4.41.92,8.87,1.54,13.28s1,8.91,1.54,13.28c.25,1.72,1.79,12.35,1.64,13.15-1.13.55-3.08.59-4.21,1.18,0,.92,1,2.69,1.33,3.65.93,2.19,3.55,9.75,4.68,10.76,1,0,3.49-1.18,4.21-1.51.66.38.56.67,1.18,1.05l10,6.72c1,.68,1.85,1.22,2.87,1.89l13.81,8.87c1.65,1.18,3.55,2.1,5.14,3.28l1.43,1c2.62,1.77,5.4,3.37,8,5.09.31.21.52.29.77.46a9.1,9.1,0,0,1,1.65,2.94l-9-1.17a3.36,3.36,0,0,0-.61-.13c-.67,0-.36-.08-.62.17a6.11,6.11,0,0,0-.51,2.81,43.68,43.68,0,0,0,5.85.72c.82.08,5.7.5,6.11.63a1.55,1.55,0,0,1,.56.67,5.44,5.44,0,0,1,.36.84,13.94,13.94,0,0,0,.88,1.68c.25.55.51,1.14.82,1.73a3.94,3.94,0,0,1,.61,1.21c.16.63.11.17-.1.34-.62.29-1.39,0-2,.46-.93.72-2.72,2.69-3.7,3.62a6.49,6.49,0,0,1-.67.5l-1.89,1.72c-.47.51-2.32,2.06-2.42,2.48l.05,8.62a87.08,87.08,0,0,0,.05,8.86c1,0,1.75-.37,3-.5,2.42-.29,8.22-.55,10.27,0-1.23,3.24-3,6.47-4.52,9.63-.77,1.63-1.49,3.1-2.31,4.74l-4.62,9.54c-.77,1.73-1.54,3.15-2.31,4.84-.46,1.09-4.31,9.24-4.67,9.58a7.35,7.35,0,0,1-1.69-.72c-.57-.29-1-.54-1.13-1.22-.26-1.22-.41-2.48-.62-3.69-.41-2.57-1-5-1.39-7.53-.77-5-1.69-10.08-2.72-14.91s-1.69-9.92-2.67-14.92c-.2-.84-2.87-14.5-2.72-15,.31-.63,4.21-2.36,4.93-3.07a54.75,54.75,0,0,1-5.13-5.34c-1.9-2.22-6.52-7.52-8.83-9.66l-5.14-5.46c-.92-1.31-7.29-8-8.78-9.71l-12.73-13.79c-1.59-1.68-6.37-7.06-7.8-8-.36-.21-1.39-.67-1.85-.88-.67-.34-1.28-.59-2-.88a73.22,73.22,0,0,1-7.5-3.53c-2.77-1.73-5.75-3.37-8.47-5.17l-5.7-3.66c-.72-.59-1.79-1.13-2.46-1.68l-6.37-4.5c-.56-.37-.87-.75-1.43-1.17a54.83,54.83,0,0,1-4.52-3.58,27.29,27.29,0,0,0-3-2.52c.62,3.53.72,7.44,1.18,11.1s.72,7.39,1.18,11.09c.31,2.44,2.26,21.43,2,22.32-.56-.17-3.95-2.86-4.77-3.37-.36-.21-.62-.42-1-.67a6.78,6.78,0,0,0-.92-.63l-4.37-3.07c-.2-.16-.3-.29-.46-.42l-2.92-2.1a7.23,7.23,0,0,1-1-.71l-5.85-4.08c-.67-.38-1.8-1.51-2.77-2.14l-5-3.32c-.77-.63-.25-1.47-.15-2.48l1.44-13.57c.1-1,.25-.84.92-1.43.26-.21.21-.21.46-.42l18.69-14.54c.62.17.77.5,1.08.84l4.11,4.2c.66.67,1.59,1.26,2.2,2,.47.51.62.64,1,1.06.72.67,1.39,1.42,2.16,2L244,339.56c.46.29.92.5,1.33.8a21.91,21.91,0,0,0,2.57,1.68c1.34.67,2.62,1.68,4,2.44.87.54,1.69,1,2.66,1.55l2.73,1.51c-.21-.67-1.29-1.51-1.85-2.1L250.58,340c-.31-.33-.66-.75-1-1.09-.62-.71-1.29-1.39-1.9-2.1-.93-1.09-2.16-2.14-3-3.2l-2.93-3.27c-.71-.76-1.13-1.39-1.84-2.15a27.3,27.3,0,0,1-2-2.18A25.45,25.45,0,0,0,236,324l-3.85-4.29c-.36-.46-.67-.63-1-1.09a11.22,11.22,0,0,0-1-1.09l-3-3.2c-.41-.37-.82-.54-1.07-1a35.83,35.83,0,0,1,3.08-2.31l.15.17.1.08.31.42a7.08,7.08,0,0,0,.62.59c.41.46.66.84,1.13,1.3l6.93,7.69c.36.38.72.67,1.13,1.18s.77.8,1.18,1.26c2.26,2.6,4.67,5,7,7.65.36.46.72.79,1.08,1.21s.72.8,1.18,1.35c1.38,1.68,3.13,3.32,4.62,5,2.26,2.57,4.77,5.09,7,7.61a15.57,15.57,0,0,0,1.18,1.26l3.39,3.91c2.52-.47,8.37-4.25,11.45-5.34l-3.08-28.11c-.36-.09-13.14,2.14-14.68,2.48-3.65.71-7.55,1-11.2,1.8-.92.17-3,.68-3.79.72a11,11,0,0,0-1.6-1.77l-8.16-9-1.59-1.77A10.8,10.8,0,0,1,232,308.8l4.62-3.4a10.09,10.09,0,0,1,.82-.76c.36-.21.61-.38,1-.63a7.59,7.59,0,0,1,.93-.76l2.72-2c.36-.3.51-.51.92-.8l3.7-2.73c1.08-.93,2.82-2.06,3.64-2.82a37.78,37.78,0,0,1,3.7-2.73l7.39-5.67a5.47,5.47,0,0,1,.83-.76l2.82-2.06c2.41-1.81,6.88-5,9.14-6.89l2-1.39c.87-.59,3-2.52,3.8-2.6l21.2,0c3.18,0,2.36,0,4.16,2.35.92,1.18,1.9,2.19,2.87,3.45l4.32,5.08c.51.63.92,1.18,1.43,1.81s.88,1.09,1.39,1.68,1.08,1.18,1.49,1.72,1.95,2.15,1.95,2.69a7.9,7.9,0,0,1-.2,1.43c-.47,3.45-.93,7.27-1.19,10.72-.05.92-.2,1.72-.25,2.6-.05,1.26-.36,1.18-.93,2.15-4.77,7.52-3.64,4.45-5,13.27-1.08,6.81-2.46,14-3.08,20.76Zm33.32-67.82.51,24.54c-1,.42-8.36,3-8.83,3l-4.26-25.76Zm5.14,26.47c-.42-.71-1-1.09-.93-2,.05-4.21-.1-10.05-.26-14.21-.15-3.57-.05-7.39-.36-11-.1-1.18.52-1.39,1.13-2s1-1,1.54-1.6l3-3.19a8.64,8.64,0,0,1,4.11-2.27c1.7-.51,3.29-1.14,4.93-1.64,11-3.45,6.67-3.28,12.37-1.3.72.25,1.65.63,2.31.92,3.9,1.77,9.71,3.95,13.92,5.72,1.28.54,1.07.33,1.43,1.68a18.83,18.83,0,0,1,.57,2.39c.41,3.15,2.26,11.77,3,14.63.3,1.21.15,1.51-.67,2.1s-2.31,2.31-3.18,3.07l-12.79,12.31a6.68,6.68,0,0,1-1.69,1.47c-.62.29-13.4,3.7-15.61,4.37-.92.25-4.41,1.3-5.18,1.39Zm-33.07,30.6c.16-2.11,2.21-16.27,2.83-17.4,1.23-2.14,3.23-4.12,4.1-6.43.41-1,2.11-17.65,2.11-17.65a6,6,0,0,0-1.23-1.47l-8.53-10.17c-.72-1-1.54-1.93-2.36-2.9a13.64,13.64,0,0,1-2.26-3h16.23c.82,2.48.87,5.84,1.49,8.49.56,2.26,1,6.17,1.38,8.61.41,2.86.93,5.67,1.39,8.49s.82,5.71,1.33,8.49c.77-.17,2.52-.84,3.34-1.14,1-.33,2.1-.75,3.13-1.17l6.26-2.4a9.44,9.44,0,0,1,1.6,2c.87,1.26,7.18,9.66,7.49,10.37.77,1.6.87,3.74,1.44,5.47s.87,3.7,1.28,5.54c.62,2.53,4,15.17,4.06,16.44-1.44.63-6.57,2.39-8.58,3.11-1.48.5-2.92,1-4.36,1.51-.36.17-.72.29-1.08.42s-.51.25-.92.38a11,11,0,0,1-2.21.67c-.31-.3-.41-.72-.72-1.05s-.51-.63-.82-1c-1.23-1.68-3.23-4.79-4.47-6.26-1.07-1.35-1.43-2.23-2.15-3.2-.26-.33-.52-.63-.77-1s-2.67-3.91-3.08-4.16c-1.59.21-.82,1.26-2.83,1.59.16.89,2.06,3.49,2.67,4.37.52.72,1.08,1.35,1.54,2.06l1.49,2.1c.88,1.14,5.65,7.69,5.86,8.49l-1.9.72c.1.46,1.18,2.35,1.48,3,.77,1.6,4.06,7.94,4.83,8.53,1.23-.17,2.21-1.13,3.34-1.34a66.67,66.67,0,0,0,5,8c1.23,1.51,2.92,2.94,4.31,4.41l15.35,15.09c1,1,3.59,3.36,4.36,4.33.11.12,2.21,5.67,2.26,6-1.38,0-7.7-.8-9.29-1l-4.57-.5c-.46-.09-4.16-.34-4.46-.63s-1.6-5.09-1.9-6.14c-.21-.67-.21-1.39-.83-1.76-1.07-.63-10.73-4.75-12-5.3-2.62-1.05-1.59-.46-3.39-2.23-.92-.92-1.69-1.93-2.56-2.94s-1.65-1.89-2.52-2.9-1.69-1.93-2.62-2.94c-.51-.54-.72-.84-1.23-1.47-2.11-2.39-4.52-4.79-6.47-7.23a92.19,92.19,0,0,0-6.47-7.31c-.51-.5-.82-1-1.28-1.43a37,37,0,0,1-2.67-2.77c.41-.34,1.44-1,1.95-1.3-.26-1.39-2.67-4.54-3.44-5.8s-1.64-1.81-1.39-3.15.26-2.61.47-3.87c.51-2.82.2-2.35,3.23-3.87.67-.33.92-.59,1.49-.88,2.05-1.18,4.11-2.31,6.16-3.49l1.64-.88c2-1.3,9.14-9.58,11.35-12.1l3.28-3.7c.72-.76,1.6-1.68,2.21-2.44l-2.87-1.85a12.7,12.7,0,0,0-1.49,1.6c-.46.59-.93,1-1.39,1.56l-11.29,12.6c-1.59,1.77-6.78,4.71-9.3,6-.41.21-.61.34-1,.59ZM290,264.8a3.36,3.36,0,0,0,.82-.63l5.08-3.86a1.75,1.75,0,0,0,.42-.34,18.82,18.82,0,0,0-2.83-2.19,11.7,11.7,0,0,0-2,1.6l-5,3.83c-.57.54-1.39,1-2.05,1.55l-2,1.51c-.46.34-.51.34-1,.72s-1.49,1-2.06,1.51c-.82.8-.77,1.09-2.36,1.13l-20.64,0v3.28l17.25,0a2.65,2.65,0,0,1-.61.59L269.48,276a8.43,8.43,0,0,1-.62.59l-1.49,1.05a3.88,3.88,0,0,1-.62.55l-4.87,3.65c-.67.55-1.49,1-2.06,1.51l-7,5.3c-1.13.8-2.21,1.81-3.39,2.6-2.2,1.52-4.1,3.24-6.26,4.71l-2.77,2.1c-.26.21-.52.38-.77.59l-3.34,2.65c-.51.38-.87.67-1.39,1a3.59,3.59,0,0,0-.66.63c-.57.54-1.49,1-2.06,1.51a9.25,9.25,0,0,1-2.87,2c-.77-1.09-2-2-2.83-3.11s-1.89-2.05-2.87-3.06c-1,.33-2,1.26-3,1.47.41,1.13,5.8,6.3,6.11,6.93-.51.46-1,.76-1.49,1.22-.25.21-.41.38-.72.63s-.46.34-.77.55l-4.62,3.48c-.56.43-1.23.55-1.64,1.06a14.11,14.11,0,0,1-2.21,1.84c-.36.21-.36.38-.66.63-1,.8-4,2.86-4.68,3.53l-12.16,9.25c-1.34.92-3.8,3.11-5.19,4.16a9.66,9.66,0,0,0-1.54,1.09c-.72.72-1.54,1.05-2.31,1.81a14.64,14.64,0,0,1-1.44,1.13l-3.13,2.32a5.52,5.52,0,0,1-.77.67,41.2,41.2,0,0,0-5.13,4.07,7,7,0,0,0,1.13,1.1c.36.29.61.63,1,1,.93-.29,4.47-3.15,5.39-3.82a33.69,33.69,0,0,0,3.49-2.6,28.75,28.75,0,0,1,3.44-2.65c.62-.46,1-1.18,1.8-1.39-.15,2.31-1.54,12.57-1.33,13.74a20.26,20.26,0,0,0,.92,2.9c.31.93.62,2,.87,2.9.57,1.6.67,1.35.36,3.07l-1.79,9.5c-.36,2.06-.88,4.2-1.24,6.26-.66,4.2-1.84,8.4-2.51,12.6-.31,2-.72,4.37-1.23,6.35s-.77,4.24-1.24,6.3c-.66,3.07-1.07,6.35-1.84,9.46-.31,1.09-.21,2.06-1,2.86a5.35,5.35,0,0,1-1.28.88l-12.12,8.36a10.39,10.39,0,0,1-1.13.8c-.46.34-.82.59-1.28.88l-1.13.84a2.27,2.27,0,0,1-1.44.67c-2.82.13-7,0-10.06,0l0,3,7.7,0a26.15,26.15,0,0,1-1.39,3.53l-8.83,20.67c-.61,1.56-12.83,30.18-13,31h48.77a3.94,3.94,0,0,1,1.64.12c-2-1.26-3.44-2.85-5.39-4.12l-4.77-3.52a3.53,3.53,0,0,0-.72-.47l-2.72-2c-.67-.59-2.67-1.9-3.5-2.48l-2-1.52c-1-.58-1.9-1.51-2.72-2a7.62,7.62,0,0,1,1.8-2l8-7.86c.2-.25.41-.46.61-.71l6.73-6.72c.41-.38.87-.93,1.23-1.22a6.56,6.56,0,0,0,1.23-1.14c.87-.84,1.54-1.72,2.47-2.48l6.21-6.13c1.95-2,3.9-4.12,5.95-6.1l4.83-4.91c2.1,0,12.73.21,13.66-.13.05-2.86.56-2.9-1.34-2.86h-9c.31-.58.77-.79,1.24-1.21s.72-.84,1.13-1.22c1.69-1.43,3.13-3,4.67-4.58a3.2,3.2,0,0,1,.61-.55l7.45-7.48c.51-.55,2.93-3.19,3.44-3.32.05,1.68.31,3.66.51,5.34s.36,3.65.52,5.42c.41,3.53.71,7.06,1.07,10.59l1.9,18.7a21,21,0,0,0,.21,2.65c.51-.22.87-.43,1.38-.68,5.19-2.73,10.12-5.59,15.35-8.23l2.78-1.52c1-.54,1.85-1,2.82-1.47,3.75-2.06,7.39-4,11.14-6,1.08-.58,10.17-5.71,11.25-5.92.15,1.05.3,2.39.56,3.44.67,2.69,1.13,7.15,1.75,10a2.24,2.24,0,0,0,.71,1.47l6.83,7.73a12.21,12.21,0,0,1,1,1.13c2.31,2.78,1.85,1.77,3.18,5.13,1.29,3.15,2.52,8.66,3.75,12.27.67,2,.36,10.67.26,13.57H264.24a14.55,14.55,0,0,0,.05,3l107.92,0c18.89,0,37.83.17,56.73-.09l-.05-2.94H413.33c-.36-.38-4.67-10.63-5.08-11.81-2.16-6-4.93-11.81-7.24-17.77-.77-2-1.7-4-2.42-6l-2.31-6c-.2-.46-1.18-2.69-1-3,.25-.55,2.26-.93,2.77-1.64a6.6,6.6,0,0,1-.77-1.26c-1.59-3.87-2.57-6.64-1.13-10.8s4.06-6.68,7.75-9.41c2.57-1.9,6.27-3.16,9.35-4.37,2.51-1.06,5.23-1.9,7.9-2.78.62-.21,6.06-1.72,6.37-2.1a5.31,5.31,0,0,0-1.64-.34c-.57,0-1.08-.12-1.7-.16-4.52-.51-9.09-.93-13.55-1.52-1.59-.21-1.75-.12-2.36-1.26s-1.44-2.06-2-3.06l-3.23-5.3c-.67-.84-3.9-1.6-5.13-2s-10.43-3.53-10.73-3.86c-.57-.51-7.45-15.38-8.78-18.07-.41-.8-.67-1.56-1.08-2.36l-3.24-6.76c-.35-.76-.77-1.56-1.13-2.31s-.66-1.64-1-2.23a6.32,6.32,0,0,0-.77-1,10.36,10.36,0,0,0-1.9-1.55c-.31-.25-.57-.51-.93-.76.21-.33.21-.29.72-.5l2-1.3c.05-.8-.83-2-1.24-2.74L367,342.08a7.57,7.57,0,0,0-1.39-2.52c-.82.17-2.77,1.18-3.54,1-.41-2.14-1.08-4.29-1.64-6.47L358,324.47c-.72-3.19-1.59-6.38-2.21-9.53.46-.3,18.17-5,20.48-5.68,1.54-.46,2-1.34,3-2.23l17.15-16.68a5.3,5.3,0,0,0,.51-.54c.36-.3.21-.09.47-.42l-1.24-5.64c-.41-2.31-3.33-16.55-3.59-16.76l-21.46-8.79c-3.7-1.26-1.9-1.38-5.65-.16l-14.32,4.79a13.39,13.39,0,0,0-1.39.54c-.87.38-1.23,1.05-1.85,1.68l-2.61,2.78a24.49,24.49,0,0,0-1.75,1.89,8.8,8.8,0,0,1-1.75,1.81L331.6,273a31.38,31.38,0,0,1-3.19.5,20.24,20.24,0,0,1-.46-2.94c-.15-.88-.1-.63-.36-.8-.56-.29-7.08-.13-8.16-.13-11.81,0-24-.16-35.73.05Z" transform="translate(-135.38 -257.19)"/><path d="M148.73,497.65a.56.56,0,0,1,.46-.55,3,3,0,0,1,1.08-.17,3,3,0,0,1,1.12.17c.31.13.47.3.47.51V502c0,1.89-.62,3.11-1.9,3.69a1.94,1.94,0,0,1,.82.51,4.58,4.58,0,0,1,.56.8,4.63,4.63,0,0,1,.36.92,3.13,3.13,0,0,1,.16.93v9.11a7.72,7.72,0,0,1-.36,2.53,4.19,4.19,0,0,1-1.13,1.8,5.13,5.13,0,0,1-2.16,1.05,14.69,14.69,0,0,1-3.28.34h-2.88a16.76,16.76,0,0,1-3.18-.29,4.69,4.69,0,0,1-2.06-1,3.71,3.71,0,0,1-1.12-1.77,9.85,9.85,0,0,1-.31-2.69v-1.22c0-.21.15-.37.46-.5a2.77,2.77,0,0,1,1.08-.21,3.19,3.19,0,0,1,1.08.21c.35.13.51.29.51.55v1.17a10.41,10.41,0,0,0,.15,2,2.2,2.2,0,0,0,.62,1.13,3.09,3.09,0,0,0,1.33.51,16.31,16.31,0,0,0,2.21.12h1.23a16.43,16.43,0,0,0,2.16-.12,3,3,0,0,0,1.44-.47,1.88,1.88,0,0,0,.82-1.09,7.18,7.18,0,0,0,.26-2.06v-7.81a8.36,8.36,0,0,0-.16-1.81,1.92,1.92,0,0,0-.56-1,2.1,2.1,0,0,0-1.08-.51,10.17,10.17,0,0,0-1.7-.12h-1.84v-2.06h1.79c.67,0,1.29,0,1.75-.08A2.1,2.1,0,0,0,148,504a2.26,2.26,0,0,0,.56-1.05,8.63,8.63,0,0,0,.16-1.81Zm47.54-.72a11.43,11.43,0,0,1,3.33.34,4.4,4.4,0,0,1,1.9,1.22,3.91,3.91,0,0,1,2.06-1.22,12,12,0,0,1,3.13-.34c.87,0,1.74.05,2.56.13a4.93,4.93,0,0,1,2.11.76,3.8,3.8,0,0,1,1.44,1.64,6.6,6.6,0,0,1,.51,2.94V523c0,.21-.15.38-.51.5a4.5,4.5,0,0,1-1.08.17,4.2,4.2,0,0,1-1.13-.17c-.31-.12-.46-.29-.46-.5l.05-20.05a7.86,7.86,0,0,0-.21-2.1,2.11,2.11,0,0,0-.56-1.17,2.07,2.07,0,0,0-1.08-.55,8.43,8.43,0,0,0-1.64-.13,16.74,16.74,0,0,0-1.75.09,2.39,2.39,0,0,0-1.13.5,1.86,1.86,0,0,0-.61,1.14,6.07,6.07,0,0,0-.21,1.89v12.73c0,.21-.15.34-.51.46a2.45,2.45,0,0,1-1.08.21,2.41,2.41,0,0,1-1.13-.21c-.31-.12-.46-.25-.46-.46V502.69a6.64,6.64,0,0,0-.21-2,2.8,2.8,0,0,0-.61-1.1,2.13,2.13,0,0,0-1.08-.54,15.41,15.41,0,0,0-1.64-.09,14.61,14.61,0,0,0-1.6.09,2.93,2.93,0,0,0-1.13.5,2.26,2.26,0,0,0-.66,1,6.86,6.86,0,0,0-.21,1.72V523c0,.21-.15.38-.46.5a2.88,2.88,0,0,1-2.16,0c-.3-.12-.51-.29-.51-.5V502.1a6,6,0,0,1,.56-2.73,3.79,3.79,0,0,1,1.55-1.55,5.07,5.07,0,0,1,2.15-.72,17,17,0,0,1,2.47-.17Zm68,.72a.56.56,0,0,1,.46-.55,3,3,0,0,1,1.08-.17,3.09,3.09,0,0,1,1.13.17c.31.13.46.3.46.51V502c0,1.89-.61,3.11-1.9,3.69a1.89,1.89,0,0,1,.82.51,4.62,4.62,0,0,1,.57.8,3,3,0,0,1,.36.92,3.44,3.44,0,0,1,.15.93v9.11a7.47,7.47,0,0,1-.36,2.53,4,4,0,0,1-1.13,1.8,5.09,5.09,0,0,1-2.15,1.05,14.53,14.53,0,0,1-3.29.34h-2.87a17.3,17.3,0,0,1-3.19-.29,4.59,4.59,0,0,1-2.05-1,3.38,3.38,0,0,1-1.08-1.77,8.11,8.11,0,0,1-.36-2.69v-1.22c0-.21.16-.37.46-.5a2.88,2.88,0,0,1,2.16,0c.36.13.51.29.51.55v1.17a10.29,10.29,0,0,0,.16,2,2.6,2.6,0,0,0,.67,1.13,2.57,2.57,0,0,0,1.28.51,16.11,16.11,0,0,0,2.21.12h1.23a15.75,15.75,0,0,0,2.15-.12,2.76,2.76,0,0,0,1.44-.47A1.67,1.67,0,0,0,264,520a5.54,5.54,0,0,0,.26-2.06v-7.81a8.47,8.47,0,0,0-.15-1.81,1.93,1.93,0,0,0-.57-1,2,2,0,0,0-1.08-.51,9.64,9.64,0,0,0-1.69-.12H259v-2.06h1.75c.72,0,1.28,0,1.74-.08a2,2,0,0,0,1.08-.51,2.27,2.27,0,0,0,.57-1.05,8.73,8.73,0,0,0,.15-1.81Zm49.95-.72c2.57,0,4.42.47,5.5,1.43a6,6,0,0,1,1.59,4.5v15.21c0,2.1-.51,3.53-1.59,4.37a8,8,0,0,1-4.88,1.22h-3.08a15,15,0,0,1-3.34-.29,4.94,4.94,0,0,1-2.15-.89,3.87,3.87,0,0,1-1.13-1.76,10.15,10.15,0,0,1-.31-2.78v-1.09a.64.64,0,0,1,.51-.63,2.5,2.5,0,0,1,1.08-.25,2.15,2.15,0,0,1,1,.25.64.64,0,0,1,.51.63v1a6.63,6.63,0,0,0,.21,1.94,1.9,1.9,0,0,0,.66,1.13,2.75,2.75,0,0,0,1.34.5,10,10,0,0,0,2.15.17h1.75a8.89,8.89,0,0,0,2.1-.21,3.13,3.13,0,0,0,1.29-.67,2.06,2.06,0,0,0,.56-1.13,7.77,7.77,0,0,0,.16-1.73v-15A9.05,9.05,0,0,0,318,501a2.21,2.21,0,0,0-.61-1.22,2.45,2.45,0,0,0-1.39-.59,11,11,0,0,0-2.31-.17h-2.1a7.35,7.35,0,0,0-1.9.17,1.77,1.77,0,0,0-1.13.63,2.78,2.78,0,0,0-.52,1.18,18.57,18.57,0,0,0-.1,1.89v.88c0,.3-.1.51-.46.63a2.45,2.45,0,0,1-1.08.21,3.13,3.13,0,0,1-1.08-.17.63.63,0,0,1-.51-.63v-1.13c0-2.1.51-3.57,1.49-4.41s2.67-1.31,5-1.31Zm51.5,26.73a7,7,0,0,1-4.78-1.39,5.54,5.54,0,0,1-1.54-4.33V502.52a10.31,10.31,0,0,1,.31-2.69,3.21,3.21,0,0,1,1.13-1.72,4.24,4.24,0,0,1,2.11-.92,18.78,18.78,0,0,1,3.43-.26h7.19a1.12,1.12,0,0,1,.82.3.91.91,0,0,1,.31.67,1.78,1.78,0,0,1-.2.76,1.26,1.26,0,0,1-.88.29l-7.24,0c-.77,0-1.38,0-1.84.08a2.56,2.56,0,0,0-1.24.51,2.36,2.36,0,0,0-.61,1.17,8,8,0,0,0-.21,2.15v2.52a5,5,0,0,1,1.8-.59,16.07,16.07,0,0,1,2.82-.21h1a21.28,21.28,0,0,1,3.59.29,6,6,0,0,1,2.26.93,3.16,3.16,0,0,1,1.18,1.6,7.29,7.29,0,0,1,.31,2.31v8.11c0,2-.46,3.53-1.44,4.45s-2.56,1.43-4.87,1.43Zm-3.24-5.8a9.05,9.05,0,0,0,.16,1.89,2.82,2.82,0,0,0,.56,1.18,2.53,2.53,0,0,0,1.18.59,11.5,11.5,0,0,0,2,.16h2.06a8.18,8.18,0,0,0,1.95-.21,2.29,2.29,0,0,0,1.23-.58,2,2,0,0,0,.62-1.14,6.32,6.32,0,0,0,.2-1.85v-7.52a9.6,9.6,0,0,0-.15-1.89,2.15,2.15,0,0,0-.67-1.18,2.88,2.88,0,0,0-1.44-.59,13.59,13.59,0,0,0-2.46-.16h-.57a12.54,12.54,0,0,0-2.36.16,2.92,2.92,0,0,0-1.44.59,1.88,1.88,0,0,0-.66,1.18,8.8,8.8,0,0,0-.16,1.89Zm60.74-20.93a12.11,12.11,0,0,1,3.33.34,4.11,4.11,0,0,1,2,1.13,3.21,3.21,0,0,1,.87,1.85,13.08,13.08,0,0,1,.2,2.57V523c0,.21-.15.38-.46.46a3,3,0,0,1-1.08.17,2.86,2.86,0,0,1-1.07-.17c-.31-.08-.47-.25-.47-.46V502.61a9.44,9.44,0,0,0-.15-1.85,2.7,2.7,0,0,0-.67-1.14,2.92,2.92,0,0,0-1.28-.59,15.91,15.91,0,0,0-2.16-.12h-1.49a16,16,0,0,0-2.2.12,2.91,2.91,0,0,0-1.29.59,1.83,1.83,0,0,0-.56,1.14,8.64,8.64,0,0,0-.16,1.85v20.46c0,.21-.15.38-.51.46a4.3,4.3,0,0,1-2.1,0c-.31-.08-.47-.25-.47-.46V502.61a11.2,11.2,0,0,1,.21-2.44,3.74,3.74,0,0,1,.87-1.81,4.68,4.68,0,0,1,1.95-1.09,12.14,12.14,0,0,1,3.34-.34Z" transform="translate(-135.38 -257.19)"/></svg>