<svg id="Layer_1" data-name="Layer 1" xmlns="http://www.w3.org/2000/svg" viewBox="0 0 159.17 153.3"><defs><style>.cls-1{fill:#231f20;fill-rule:evenodd;}</style></defs><path class="cls-1" d="M317.18,495.08a8.24,8.24,0,0,1,.51-1.45c.11-.25.22-.42.34-.7a3.4,3.4,0,0,1,.25-.8l.91-2.18c.06-.11.08-.2.14-.34l.14-.34a.1.1,0,0,0,0-.06c1.05.43,6.24,3.52,7.54,4.28.4.26.85.51,1.25.74s1,.51,1,.76l0,.09a53,53,0,0,1-6.07,0c-1.9,0-4.22.14-6.06,0Zm13.38-34.3c1.53.2,5,2.18,6.23,3.2a18.54,18.54,0,0,1,2.41,2.27,23.76,23.76,0,0,1,2.86,5c.2.45.71,2.12.85,2.35a18,18,0,0,0,1.79-.85l3.49-1.93c1.47-.85,3.65-1.9,5.27-2.86.62-.34,1.19-.59,1.81-.91a5.78,5.78,0,0,1,1.87-.9,16.22,16.22,0,0,0,.54,1.84c.17.57.4,1.25.6,1.81.42,1.19.82,2.38,1.22,3.66l3.6,10.8c.42,1.16.82,2.47,1.24,3.63s.77,2.41,1.17,3.6l1.24,3.6c-4.47.11-9.07,0-13.55,0l-18.65,0a2.09,2.09,0,0,1-1.36-.42l-2.1-1.25L326.84,491c-1.3-.8-5.7-3.12-6.52-3.77,0-.68,4.45-11.71,5.08-13.21.82-2.07,1.73-4.59,2.58-6.58.45-1.05,2.29-5.7,2.58-6.66ZM231.37,486.6c.2.34.34.37.6.57l1.78,1.56c.82.65,2.1,1.87,3,2.58l1.19,1.05a36.59,36.59,0,0,1,2.83,2.72l-19.33.06c0-.34,2.41-7.26,3-8.9l2.24-6.58c.85-2.24,1.39-4.28,2.27-6.58.56-1.39,1-2.95,1.53-4.36s1-3,1.5-4.4a38.53,38.53,0,0,1,1.59-4.39c1.07-.14,12.53,0,14.62,0A39.79,39.79,0,0,1,253,460a61.43,61.43,0,0,1-3.91,5l-10.58,12.87c-.14.14-.25.25-.37.39l-2.72,3.35c-.73,1-3.68,4.42-4.08,5Zm77.93-38.21a3.79,3.79,0,0,1,.28,1.17c.31,1.72.59,5,1,6.57.2.91.2,1.76.37,2.67.6,3.48,1,6.94,1.62,10.4.28,1.76.45,3.49.76,5.21.54,3.26.94,7.26,1.56,10.46.23,1.14,0,1.71.91,2.13a15.44,15.44,0,0,1,1.81,1.22c0,.2-2.52,6.72-2.63,6.89l-8,0a36.44,36.44,0,0,1,0-4.31c-.05-4.74.32-3.21-.9-7.77-.29-1-1.79-7.2-2-7.68-.37-.77-2.47-3.43-3.18-4.48l-.85-1.3c-.31-.46-.68-.88-.93-1.31-1-1.64-.8-.85-1.14-3.14l-1.07-7.6c-.12-.82.19-.91.76-1.28l6.52-4.36c1-.74,1.67-1.11,2.61-1.79ZM358,463.27l-6.86,3.8c-.82.46-6.61,3.63-7.06,3.69-.23-.4-.37-1.05-.62-1.48s-.49-1-.74-1.41a18.29,18.29,0,0,0-5.53-6,23.52,23.52,0,0,0-3.34-2,20.06,20.06,0,0,0-6.69-1.75c-.68,0-1.34,0-2,0-2.41.05-2,.73-1.93-1.85,0-1.89.14-4.7,0-6.46,0-.76.85-1.33,1.3-1.84L327,445l40.22-.08c-.23.34-3.06,1.67-4.51,2.89a17.89,17.89,0,0,0-2.72,2.78,12.13,12.13,0,0,0-2.83,6.32,13.14,13.14,0,0,0,.59,5.69c.09.32.2.34.26.68Zm-2.1-20.8c.4.08.57.08.76.31-.08.06.15.06-.25.11a1.78,1.78,0,0,1-.4,0c-1-.14-2.86,0-4-.05-1.7,0-11.84.08-12.07-.06s-.17-.34-.23-.54l-.37-2a36.19,36.19,0,0,1,4.17.51c1.76.2,11.62,1.78,12.36,1.7Zm-87.56-16.3c.54.17.68.51.93.82s.29.28.43.45c.62.83,2.18,2.33,2.86,3.29l5.73,6.47c.2.22.22.22.42.45l2,2.35a5.81,5.81,0,0,1,.43.43l4,4.67c.2.2.2.29.4.49l3.29,3.71c.17.23.23.26.4.48l2.89,3.23a6.14,6.14,0,0,1,.82.94,11.25,11.25,0,0,0,.85.91,3.64,3.64,0,0,0,.4.48c.22.22.31.2.34.51a12.56,12.56,0,0,1-1.36.93c-.49.34-.94.6-1.42.91-1.62,1.05-4.23,2.69-5.67,3.71l-5.61,3.72c-1,.62-1.87,1.24-2.84,1.87l-4.25,2.75c-.23.17-.48.31-.74.48a1.61,1.61,0,0,1-.79.4c0-1.79-.28-3.83-.43-5.62s-.31-3.65-.45-5.5c-.31-3.65-.65-7.39-.91-11.05s-.65-7.31-.88-11-.48-7.54-.9-11.25Zm33.53-11.79c.68-.46,1.93-.94,2.72-1.36l4-2c.48-.19.88-.51,1.33-.73A24.69,24.69,0,0,1,312.7,409c.14.17.2.31.37.51l12.87,17.58a31.81,31.81,0,0,0,2.38,3.09c.93.65,2.52,1.3,3.6,1.9.42.25.76.42,1.22.68,2.38,1.36,2.55.82,2.94,2.58.12.51.23,1,.37,1.56l1.39,6-7.51,0c-.82,0-1,.17-1.19-.6s-.71-1.81-1.05-2.63c-.88-2.07-1.53-3.86-2.32-5.87-.23-.6-.68-.8-1.42-1.36l-4.11-3.23c-2.07-1.73-4-3.07-6.15-4.91l-2.58-2a5.32,5.32,0,0,1-.48-.46l-5.14-4.11c-.25-.17-.34-.14-.53-.34-.49-.51-3.24-2.52-3.52-3Zm31.72-1.31c.28-.25,1.59-.76,2.15-1.1s1.34-.68,2.07-1.08,1.39-.68,2.13-1.08a6.58,6.58,0,0,1,2.24-1.05c1.3,1.82,1.42.71,2.81,3.94.68,1.62,1.27,3.29,1.92,4.94,2,4.87,3.75,9.75,5.76,14.65.37.94.31.74,1.93,1.48,1.27.56,6.63,2.66,7.08,3.11.17.2,2.27,4.09,2.38,4.48-1.56-.14-12.27-1.53-12.81-1.87-.82-.48-1.13-4.31-2-5.36-.11-.14-.25-.34-.36-.51-1-1.21-1.93-2.21-2.95-3.51a11.87,11.87,0,0,0-.8-1l-7.48-9c-.31-.34-.54-.62-.85-1s-.48-.65-.79-1.05a13.46,13.46,0,0,1-1.34-2.32c-.22-.65-1-2.15-1.13-2.64Zm-82.77-2,4.39,3.77c.17.17.26.2.43.37l9.69,8.39c1,.71.85.62.94,2.1.25,3.85.59,7.42.88,11.25.05.71.54,5.36.39,5.67s-.42.42-.71.74l-1.95,2.41a4,4,0,0,1-.34.39l-6.29,7.63c-.2.22-.43.59-.63.82a2.58,2.58,0,0,0-.37.37l-1.64,2c-.79.91-.17.85-2,.88H241.77a55.43,55.43,0,0,1-5.81-.06l3.12-2.58c.2-.17.34-.31.51-.45l4.74-4c.59-.51.45-.23.65-1.25l.79-5c.37-2.23.68-4.42,1-6.71s.85-4.43,1.11-6.61.7-4.59,1-6.66c.43-2.44,2-11.68,1.82-13.52Zm47.93,2.52-1.9-5.64,11.06-3.34a34,34,0,0,1,3.74-1.11,15.5,15.5,0,0,1,.79,1.36,5.54,5.54,0,0,1,.71,1.5c-.42.26-1.36.68-1.78.91l-1.82.91c-.59.31-1.24.54-1.84.85L305,410.44c-.37.17-.51.34-.85.48-1,.45-5,2.64-5.42,2.69Zm39.72-10.15c.76-.25,2.58-1.27,3.14-1.39a8.56,8.56,0,0,1,.43.91c.22.63,1.13,2.38,1.16,2.75l-4.71,2.47a6.21,6.21,0,0,1-.82.39c-.28.15-.42.26-.71.4-1,.51-2.12,1.05-3.09,1.62a27.25,27.25,0,0,1-3.11,1.61c-.2-.88-1.7-3.88-1.85-4.42Zm-27.61-1.92c-2,.59-4.11,1.19-6.15,1.81-1,.31-2.07.57-3.07.91a31.6,31.6,0,0,1-3.06.9c0-1.3-.22-3-.37-4.39l-1.24-13.21c-.2-1.87-1.59-17.09-1.82-17.49-.14-.11.06,0-.17-.08l-.68,0c-.37,0-.68,0-1,.06-.05.34.68,8.08.8,9,.34,3,.48,6,.82,8.95s.54,6,.88,9c.11,1.16,1,8.34.88,8.87-.6.37-1.7.4-2.33.8a10.55,10.55,0,0,0,.77,2.46c.48,1.48,1.93,6.58,2.55,7.26a8,8,0,0,0,2.32-1c.4.26.32.45.68.71l5.5,4.54c.57.45,1.05.82,1.59,1.27l7.63,6c.9.8,2,1.42,2.83,2.21l.79.65c1.45,1.2,3,2.27,4.43,3.43a3.73,3.73,0,0,1,.42.32,6.39,6.39,0,0,1,.91,2l-5-.79a2,2,0,0,0-.31-.09c-.4,0-.23-.05-.37.12a4.57,4.57,0,0,0-.26,1.89,19.76,19.76,0,0,0,3.21.49c.45.05,3.14.34,3.37.42a1.1,1.1,0,0,1,.31.46l.23.56a10,10,0,0,0,.45,1.14c.17.36.28.76.45,1.16a3.56,3.56,0,0,1,.37.82c.06.43.06.11-.08.23-.31.2-.77,0-1.11.31-.51.48-1.5,1.81-2,2.44a4.15,4.15,0,0,0-.37.34l-1.05,1.16a14.1,14.1,0,0,0-1.36,1.67l.06,5.81c0,1.9-.17,4.17,0,6,.57,0,1-.25,1.64-.34,1.33-.2,4.54-.37,5.67,0-.68,2.18-1.67,4.37-2.49,6.49l-1.25,3.21-2.55,6.43c-.43,1.16-.88,2.13-1.28,3.26-.28.74-2.41,6.24-2.6,6.46a4,4,0,0,1-.94-.48,1,1,0,0,1-.6-.82c-.14-.82-.25-1.67-.36-2.49-.23-1.73-.54-3.41-.74-5.08-.45-3.34-1-6.8-1.5-10.06s-1-6.69-1.51-10.06c-.08-.57-1.58-9.78-1.47-10.1s2.32-1.58,2.72-2.07a39,39,0,0,1-2.86-3.6c-1.05-1.5-3.6-5.07-4.85-6.52l-2.83-3.68c-.54-.88-4-5.41-4.88-6.55l-7-9.3a61.67,61.67,0,0,0-4.31-5.38c-.17-.14-.76-.46-1-.6l-1.08-.59a39.1,39.1,0,0,1-4.16-2.38c-1.53-1.17-3.15-2.27-4.65-3.49l-3.18-2.47c-.39-.39-1-.76-1.36-1.13l-3.48-3c-.34-.26-.51-.51-.83-.8-1.16-1-1.3-1.22-2.49-2.41a17.71,17.71,0,0,0-1.62-1.7c.31,2.38.4,5,.63,7.49s.39,5,.65,7.48c.17,1.64,1.27,14.46,1.13,15.05a33,33,0,0,1-2.63-2.27,4.18,4.18,0,0,1-.57-.45,6.59,6.59,0,0,0-.54-.42l-2.38-2.07c-.14-.12-.17-.2-.28-.29l-1.62-1.41a5,5,0,0,1-.54-.49L254,411.17c-.34-.25-1-1-1.53-1.44l-2.78-2.24c-.42-.43-.11-1-.05-1.67l.79-9.16c.06-.65.11-.57.48-1,.14-.14.11-.14.26-.29l10.31-9.8a1.25,1.25,0,0,1,.63.56L264.4,389c.34.45.85.85,1.19,1.33a8.89,8.89,0,0,0,.59.71c.37.45.77,1,1.16,1.36l8.11,7.11c.26.2.51.34.74.54.45.37.93.82,1.41,1.14.74.45,1.48,1.13,2.19,1.64.51.37,1,.65,1.5,1.05l1.47,1a5.7,5.7,0,0,0-1-1.42l-2.66-3.65c-.17-.23-.37-.51-.51-.74-.37-.48-.71-.94-1.05-1.42-.51-.74-1.19-1.44-1.67-2.15l-1.62-2.21c-.37-.51-.62-.94-1-1.45s-.77-1-1.11-1.47-.7-.91-1-1.39L269,386.12c-.23-.32-.37-.43-.57-.74a7.77,7.77,0,0,0-.54-.74l-1.64-2.15c-.23-.26-.45-.37-.6-.65.12-.15,1.59-1.48,1.73-1.56l.06.11s0,0,.06.06l.2.28a2.7,2.7,0,0,0,.31.4c.22.31.37.56.62.88l3.83,5.18a8.29,8.29,0,0,1,.62.8c.23.28.43.54.65.85,1.28,1.75,2.61,3.4,3.86,5.16.22.31.42.53.62.82s.37.54.63.91c.79,1.13,1.72,2.23,2.55,3.4,1.24,1.73,2.63,3.43,3.88,5.13.26.34.4.54.65.85l1.9,2.63c1.36-.31,4.59-2.86,6.29-3.6l-1.7-19c-.17-.06-7.25,1.45-8.08,1.67-2,.48-4.19.68-6.2,1.22a17.47,17.47,0,0,1-2.1.48,7.78,7.78,0,0,0-.88-1.19l-4.51-6.09c-.31-.43-.56-.77-.88-1.19a7.08,7.08,0,0,1-.87-1.31l2.52-2.29c.17-.2.25-.31.45-.51a6.77,6.77,0,0,0,.54-.43c.2-.17.31-.34.51-.51l1.5-1.36c.23-.2.29-.34.51-.54l2-1.84c.6-.62,1.59-1.39,2-1.9a21,21,0,0,1,2.07-1.84l4.05-3.83a5.47,5.47,0,0,1,.45-.51l1.56-1.39c1.33-1.22,3.8-3.4,5.05-4.65l1.08-.93c.48-.4,1.67-1.7,2.12-1.76l11.68,0c1.76,0,1.33,0,2.32,1.59.49.79,1,1.47,1.56,2.32l2.38,3.43c.32.43.51.79.8,1.22s.48.74.79,1.13.57.8.82,1.17a7.94,7.94,0,0,1,1.08,1.81c0,.23-.08.68-.11,1-.26,2.33-.54,4.91-.68,7.23,0,.63-.12,1.16-.14,1.76,0,.85-.17.79-.51,1.45-2.64,5.07-2,3-2.78,8.95-.57,4.6-1.36,9.41-1.7,14Zm18.42-45.75.29,16.55c-.6.28-4.65,2-4.91,2L322.28,357Zm2.84,17.85a2.46,2.46,0,0,1-.54-1.36c0-2.83,0-6.77-.14-9.58-.09-2.41,0-5-.2-7.4-.06-.79.28-.93.62-1.36s.57-.68.85-1.07l1.67-2.16a4.8,4.8,0,0,1,2.3-1.53c.91-.34,1.81-.77,2.72-1.11,6.07-2.32,3.69-2.21,6.8-.87.43.17.91.42,1.31.62,2.15,1.19,5.33,2.66,7.68,3.85.68.37.6.23.79,1.14.09.45.23,1.16.29,1.61.25,2.13,1.27,7.94,1.67,9.87.17.82.09,1-.34,1.42s-1.3,1.56-1.76,2.07l-7.08,8.3a4,4,0,0,1-.91,1c-.37.2-7.43,2.5-8.62,2.95-.51.17-2.46.88-2.86.94ZM313.8,394.28c.12-1.42,1.22-11,1.56-11.74.68-1.44,1.79-2.77,2.27-4.33.23-.71,1.19-11.91,1.16-11.91a3.16,3.16,0,0,0-.68-1l-4.68-6.86c-.42-.65-.85-1.3-1.33-2a11.61,11.61,0,0,1-1.24-2h9c.45,1.67.45,3.94.82,5.73.29,1.53.54,4.16.74,5.81.23,1.93.51,3.82.77,5.72s.48,3.86.76,5.73c.4-.11,1.36-.57,1.81-.77a17,17,0,0,0,1.73-.79l3.46-1.61a6,6,0,0,1,.88,1.33c.48.85,4,6.52,4.17,7,.39,1.08.45,2.52.76,3.68s.49,2.5.74,3.75c.31,1.7,2.18,10.23,2.21,11.08-.79.42-3.63,1.62-4.73,2.1-.8.34-1.59.65-2.38,1a5.78,5.78,0,0,1-.63.28c-.22.09-.28.17-.51.26a5.3,5.3,0,0,1-1.22.45c-.14-.2-.22-.48-.39-.71s-.29-.42-.43-.68c-.71-1.13-1.78-3.23-2.46-4.22s-.8-1.51-1.22-2.16c-.12-.22-.29-.42-.43-.68s-1.47-2.63-1.67-2.8c-.88.14-.48.85-1.59,1.07a16.09,16.09,0,0,0,1.5,2.95c.29.48.57.91.85,1.39l.8,1.42a62.08,62.08,0,0,1,3.23,5.72l-1.05.49c.06.31.65,1.58.82,2,.43,1.08,2.24,5.36,2.7,5.75.65-.11,1.19-.76,1.81-.9a55,55,0,0,0,2.75,5.41c.71,1,1.62,2,2.38,3l8.48,10.17c.53.68,2,2.27,2.41,2.92.05.09,1.21,3.83,1.24,4.06-.73,0-4.25-.54-5.1-.66s-1.73-.22-2.55-.34a13.28,13.28,0,0,1-2.47-.42c-.17-.17-.85-3.43-1-4.14-.11-.45-.11-.94-.48-1.19-.57-.43-5.9-3.2-6.63-3.57-1.42-.71-.85-.31-1.84-1.51-.54-.62-.94-1.3-1.45-2s-.91-1.27-1.39-2-.93-1.3-1.45-2l-.68-1c-1.16-1.62-2.49-3.23-3.54-4.88-.74-1.1-2.72-3.94-3.6-4.93-.25-.34-.45-.65-.71-1a23.22,23.22,0,0,1-1.44-1.87,8.24,8.24,0,0,1,1.07-.88,21,21,0,0,0-1.9-3.91c-.39-.77-.9-1.22-.79-2.13s.14-1.76.28-2.61c.26-1.9.12-1.59,1.79-2.61a8.54,8.54,0,0,0,.79-.59c1.14-.8,2.27-1.56,3.43-2.35l.88-.6c1.14-.88,5.08-6.46,6.27-8.16l1.81-2.5c.4-.51.88-1.13,1.22-1.64l-1.59-1.25a7.72,7.72,0,0,0-.79,1.08c-.28.39-.54.71-.79,1l-6.24,8.5a24.4,24.4,0,0,1-5.13,4.05,4.44,4.44,0,0,0-.54.4ZM300.88,349.1a2.85,2.85,0,0,0,.42-.43l2.81-2.61a1,1,0,0,0,.23-.22,9.87,9.87,0,0,0-1.56-1.48c-.46.26-.71.74-1.11,1.08L298.92,348c-.31.37-.76.68-1.1,1.05l-1.14,1c-.22.22-.28.22-.54.48a12.37,12.37,0,0,0-1.13,1c-.45.54-.43.74-1.3.77l-11.4,0,0,2.21,9.53,0a1.61,1.61,0,0,1-.34.4l-1.93,1.73a2.12,2.12,0,0,1-.34.39l-.8.71c-.17.17-.17.2-.36.37l-2.7,2.47c-.34.36-.82.65-1.13,1l-3.83,3.57c-.62.54-1.24,1.22-1.9,1.76-1.22,1-2.24,2.18-3.45,3.17l-1.54,1.42a4.78,4.78,0,0,0-.39.39l-1.87,1.79a9.46,9.46,0,0,1-.74.68,5.63,5.63,0,0,0-.4.43c-.31.36-.82.68-1.13,1a4.94,4.94,0,0,1-1.59,1.33c-.42-.74-1.08-1.36-1.56-2.1a22.62,22.62,0,0,0-1.58-2.07c-.54.23-1.11.85-1.62,1,.2.77,3.17,4.26,3.37,4.68-.28.31-.56.51-.85.82-.14.14-.22.26-.37.43a3.48,3.48,0,0,0-.42.37l-2.58,2.35c-.31.28-.68.37-.91.71a7.2,7.2,0,0,1-1.22,1.25,5.27,5.27,0,0,0-.37.42c-.53.54-2.18,1.93-2.55,2.38L250,393.63c-.74.62-2.1,2.1-2.87,2.8a8.34,8.34,0,0,0-.85.74c-.39.48-.85.71-1.24,1.22a7.71,7.71,0,0,1-.83.77l-1.7,1.55c-.19.17-.25.32-.45.46a24.91,24.91,0,0,0-2.83,2.75,5.77,5.77,0,0,0,.62.73,6.7,6.7,0,0,1,.59.68,31.41,31.41,0,0,0,3-2.57,19.18,19.18,0,0,0,1.9-1.76,20.11,20.11,0,0,1,1.9-1.79c.34-.31.57-.79,1-.93-.08,1.56-.85,8.47-.74,9.27a18.1,18.1,0,0,0,.51,1.95c.17.63.34,1.33.51,2a3.37,3.37,0,0,1,.2,2.07l-1,6.4c-.2,1.39-.48,2.84-.65,4.23-.4,2.83-1.05,5.67-1.39,8.5-.17,1.33-.42,2.95-.71,4.28s-.42,2.86-.68,4.25c-.37,2.07-.59,4.28-1,6.38-.17.74-.08,1.39-.54,1.93a3,3,0,0,1-.68.59l-6.71,5.64a5.43,5.43,0,0,1-.63.54c-.25.23-.42.4-.68.6l-.62.57a1.32,1.32,0,0,1-.82.45c-1.54.08-3.89,0-5.56,0l0,2,4.25,0a21,21,0,0,1-.77,2.38l-4.84,13.95c-.37,1.05-7.12,20.35-7.2,20.92h26.93c.88,0,.19-.06.9.08-1.07-.85-1.9-1.93-3-2.78l-2.64-2.38a1.31,1.31,0,0,0-.4-.31l-1.5-1.36c-.37-.4-1.47-1.27-1.93-1.67l-1.13-1c-.51-.4-1.05-1-1.5-1.33a5.14,5.14,0,0,1,1-1.37l4.39-5.3c.12-.17.23-.31.34-.48l3.74-4.53a7.18,7.18,0,0,1,.68-.83,6.75,6.75,0,0,0,.68-.76,20,20,0,0,1,1.34-1.67l3.46-4.14c1-1.36,2.12-2.78,3.28-4.11l2.64-3.32c1.16,0,7.06.14,7.54-.08,0-1.93.31-2-.74-1.93h-5a2.68,2.68,0,0,1,.65-.82c.2-.23.43-.57.66-.83.9-1,1.7-2,2.55-3.08.14-.17.22-.23.34-.37l4.11-5.05a20.06,20.06,0,0,1,1.9-2.24c0,1.14.17,2.47.31,3.6s.17,2.47.28,3.66c.2,2.38.37,4.76.57,7.14L270,472.52a10.8,10.8,0,0,0,.14,1.78c.25-.14.48-.28.74-.45,2.89-1.84,5.61-3.77,8.47-5.56l1.53-1,1.56-1c2.07-1.39,4.08-2.69,6.15-4,.6-.4,5.62-3.86,6.24-4,.06.71.17,1.61.28,2.32.37,1.82.65,4.82,1,6.75a1.65,1.65,0,0,0,.37,1l3.8,5.22c.2.28.34.45.57.76a8,8,0,0,1,1.73,3.46c.71,2.13,1.39,5.84,2.07,8.28.37,1.33.2,7.2.14,9.15H286.68a9.45,9.45,0,0,0,0,2l59.56,0c10.46,0,20.89.11,31.32-.06l0-2H369c-.17-.26-2.56-7.18-2.81-8-1.19-4.05-2.72-8-4-12-.42-1.36-.93-2.69-1.33-4l-1.28-4.06a10.8,10.8,0,0,1-.56-2c.17-.37,1.24-.62,1.53-1.11a6.35,6.35,0,0,1-.4-.85c-.91-2.6-1.44-4.48-.65-7.28a12.81,12.81,0,0,1,4.28-6.35,22,22,0,0,1,5.16-2.95c1.42-.71,2.89-1.28,4.36-1.87a29.84,29.84,0,0,0,3.55-1.42,2.32,2.32,0,0,0-.94-.22c-.31,0-.59-.09-.91-.12-2.49-.34-5-.62-7.51-1-.88-.14-1-.08-1.3-.85s-.79-1.39-1.11-2.07l-1.78-3.57c-.37-.57-2.13-1.08-2.84-1.36s-5.75-2.38-5.92-2.61-4.11-10.37-4.85-12.19c-.23-.54-.37-1.05-.59-1.58l-1.79-4.57-.62-1.56c-.17-.42-.37-1.1-.54-1.5a6.91,6.91,0,0,0-1.5-1.7l-.49-.51c.12-.23.12-.2.37-.34l1.11-.88a5.62,5.62,0,0,0-.65-1.84l-1.56-3.55a5.7,5.7,0,0,0-.8-1.7c-.45.12-1.53.8-1.92.68-.26-1.44-.63-2.89-.94-4.36l-1.3-6.49c-.4-2.16-.88-4.31-1.22-6.44.25-.2,10.06-3.37,11.31-3.82.88-.32,1.1-.91,1.67-1.51l9.5-11.25A4,4,0,0,0,360,366c.2-.2.14-.06.28-.28l-.68-3.8c-.22-1.56-1.87-11.17-2-11.31l-11.85-5.93c-2-.85-1-.93-3.09-.11l-7.93,3.23c-.29.12-.49.23-.77.37a3.21,3.21,0,0,0-1,1.14l-1.48,1.87-1,1.27a6.66,6.66,0,0,1-.93,1.22l-5.67,1a14.33,14.33,0,0,1-1.79.34c-.14-.62-.17-1.33-.25-2s-.06-.43-.2-.54a33,33,0,0,0-4.51-.08c-6.49,0-13.27-.12-19.73,0Z" transform="translate(-218.42 -343.96)"/></svg>