<?xml version="1.0" encoding="UTF-8"?>
<!DOCTYPE svg PUBLIC "-//W3C//DTD SVG 1.1//EN" "http://www.w3.org/Graphics/SVG/1.1/DTD/svg11.dtd">
<!-- Creator: CorelDRAW 2020 (64-Bit) -->
<svg xmlns="http://www.w3.org/2000/svg" xml:space="preserve" width="681px" height="78px" version="1.1" style="shape-rendering:geometricPrecision; text-rendering:geometricPrecision; image-rendering:optimizeQuality; fill-rule:evenodd; clip-rule:evenodd"
viewBox="0 0 169.08 19.42"
 xmlns:xlink="http://www.w3.org/1999/xlink"
 xmlns:xodm="http://www.corel.com/coreldraw/odm/2003">
 <defs>
  <style type="text/css">
   <![CDATA[
    .str0 {stroke:black;stroke-width:0.73;stroke-miterlimit:2.61313}
    .fil0 {fill:black;fill-rule:nonzero}
   ]]>
  </style>
 </defs>
 <g id="Layer_x0020_1">
  <metadata id="CorelCorpID_0Corel-Layer"/>
  <path class="fil0 str0" d="M7.99 0.87c0,-0.17 0.09,-0.3 0.27,-0.38 0.18,-0.08 0.38,-0.12 0.61,-0.12 0.25,0 0.46,0.04 0.64,0.13 0.18,0.09 0.27,0.2 0.27,0.35l0 3.04c0,1.33 -0.37,2.19 -1.09,2.58 0.17,0.07 0.33,0.19 0.46,0.36 0.14,0.17 0.25,0.36 0.33,0.56 0.09,0.21 0.16,0.42 0.22,0.66 0.05,0.23 0.08,0.44 0.08,0.63l0 6.38c0,0.67 -0.07,1.26 -0.2,1.76 -0.13,0.49 -0.35,0.91 -0.65,1.24 -0.31,0.33 -0.72,0.57 -1.23,0.73 -0.52,0.16 -1.15,0.24 -1.89,0.24l-1.63 0c-0.73,0 -1.34,-0.07 -1.83,-0.21 -0.49,-0.15 -0.88,-0.37 -1.17,-0.68 -0.29,-0.31 -0.5,-0.73 -0.63,-1.24 -0.12,-0.52 -0.18,-1.15 -0.18,-1.9l0 -0.82c0,-0.16 0.09,-0.29 0.26,-0.38 0.18,-0.08 0.39,-0.13 0.62,-0.13 0.21,0 0.41,0.05 0.61,0.13 0.2,0.09 0.29,0.23 0.29,0.4l0 0.83c0,0.57 0.03,1.02 0.1,1.36 0.06,0.34 0.18,0.6 0.36,0.79 0.17,0.18 0.42,0.3 0.74,0.36 0.32,0.05 0.74,0.08 1.26,0.08l0.72 0c0.48,0 0.88,-0.03 1.22,-0.07 0.34,-0.04 0.62,-0.15 0.83,-0.32 0.21,-0.17 0.37,-0.43 0.47,-0.77 0.09,-0.35 0.14,-0.83 0.14,-1.43l0 -5.47c0,-0.53 -0.03,-0.95 -0.09,-1.27 -0.06,-0.32 -0.17,-0.57 -0.32,-0.74 -0.15,-0.17 -0.36,-0.28 -0.61,-0.34 -0.26,-0.07 -0.59,-0.1 -0.98,-0.1l-1.04 0 0 -1.41 1.02 0c0.39,0 0.72,-0.03 0.98,-0.08 0.27,-0.05 0.48,-0.17 0.63,-0.35 0.15,-0.18 0.26,-0.42 0.32,-0.73 0.06,-0.31 0.09,-0.73 0.09,-1.27l0 -2.4zm27.21 -0.5c0.84,0 1.47,0.08 1.91,0.25 0.44,0.17 0.8,0.45 1.08,0.84 0.27,-0.39 0.66,-0.67 1.17,-0.84 0.52,-0.17 1.11,-0.25 1.79,-0.25 0.51,0 1,0.03 1.47,0.1 0.46,0.07 0.86,0.24 1.21,0.51 0.34,0.27 0.62,0.65 0.81,1.16 0.2,0.51 0.29,1.19 0.29,2.04l0 14.4c0,0.14 -0.09,0.25 -0.29,0.33 -0.19,0.08 -0.4,0.12 -0.61,0.12 -0.25,0 -0.46,-0.04 -0.64,-0.12 -0.18,-0.08 -0.27,-0.19 -0.27,-0.33l0.03 -14c0,-0.61 -0.04,-1.09 -0.11,-1.47 -0.07,-0.37 -0.18,-0.65 -0.34,-0.84 -0.16,-0.18 -0.37,-0.31 -0.62,-0.37 -0.25,-0.06 -0.56,-0.09 -0.93,-0.09 -0.39,0 -0.72,0.02 -0.99,0.08 -0.26,0.05 -0.48,0.17 -0.65,0.34 -0.17,0.18 -0.29,0.44 -0.36,0.78 -0.07,0.33 -0.11,0.78 -0.11,1.33l0 8.88c0,0.14 -0.1,0.26 -0.29,0.34 -0.2,0.09 -0.4,0.14 -0.61,0.14 -0.25,0 -0.47,-0.05 -0.64,-0.14 -0.18,-0.08 -0.27,-0.2 -0.27,-0.34l0 -8.83c0,-0.57 -0.04,-1.02 -0.12,-1.36 -0.08,-0.33 -0.2,-0.6 -0.36,-0.78 -0.16,-0.19 -0.37,-0.31 -0.63,-0.36 -0.25,-0.06 -0.56,-0.08 -0.92,-0.08 -0.35,0 -0.65,0.02 -0.9,0.08 -0.25,0.05 -0.47,0.16 -0.64,0.33 -0.18,0.17 -0.31,0.4 -0.39,0.71 -0.08,0.3 -0.12,0.7 -0.12,1.2l0 14.45c0,0.14 -0.09,0.25 -0.28,0.34 -0.19,0.09 -0.39,0.14 -0.6,0.14 -0.21,0 -0.42,-0.05 -0.61,-0.14 -0.2,-0.09 -0.3,-0.2 -0.3,-0.34l0 -14.59c0,-0.8 0.11,-1.43 0.32,-1.9 0.22,-0.47 0.51,-0.84 0.87,-1.1 0.36,-0.25 0.78,-0.42 1.24,-0.5 0.46,-0.08 0.93,-0.12 1.41,-0.12zm38.92 0.5c0,-0.17 0.09,-0.3 0.27,-0.38 0.17,-0.08 0.38,-0.12 0.61,-0.12 0.25,0 0.46,0.04 0.64,0.13 0.18,0.09 0.27,0.2 0.27,0.35l0 3.04c0,1.33 -0.37,2.19 -1.1,2.58 0.18,0.07 0.34,0.19 0.47,0.36 0.13,0.17 0.24,0.36 0.33,0.56 0.09,0.21 0.16,0.42 0.22,0.66 0.05,0.23 0.08,0.44 0.08,0.63l0 6.38c0,0.67 -0.07,1.26 -0.2,1.76 -0.14,0.49 -0.36,0.91 -0.66,1.24 -0.3,0.33 -0.71,0.57 -1.22,0.73 -0.52,0.16 -1.15,0.24 -1.9,0.24l-1.62 0c-0.73,0 -1.34,-0.07 -1.83,-0.21 -0.49,-0.15 -0.88,-0.37 -1.17,-0.68 -0.3,-0.31 -0.51,-0.73 -0.63,-1.24 -0.12,-0.52 -0.19,-1.15 -0.19,-1.9l0 -0.82c0,-0.16 0.09,-0.29 0.27,-0.38 0.18,-0.08 0.38,-0.13 0.61,-0.13 0.22,0 0.42,0.05 0.62,0.13 0.19,0.09 0.29,0.23 0.29,0.4l0 0.83c0,0.57 0.03,1.02 0.09,1.36 0.07,0.34 0.19,0.6 0.36,0.79 0.18,0.18 0.43,0.3 0.75,0.36 0.32,0.05 0.74,0.08 1.25,0.08l0.72 0c0.48,0 0.89,-0.03 1.23,-0.07 0.34,-0.04 0.61,-0.15 0.83,-0.32 0.21,-0.17 0.36,-0.43 0.46,-0.77 0.1,-0.35 0.15,-0.83 0.15,-1.43l0 -5.47c0,-0.53 -0.03,-0.95 -0.09,-1.27 -0.07,-0.32 -0.17,-0.57 -0.32,-0.74 -0.16,-0.17 -0.36,-0.28 -0.62,-0.34 -0.25,-0.07 -0.58,-0.1 -0.97,-0.1l-1.04 0 0 -1.41 1.01 0c0.39,0 0.72,-0.03 0.99,-0.08 0.27,-0.05 0.47,-0.17 0.63,-0.35 0.15,-0.18 0.25,-0.42 0.32,-0.73 0.06,-0.31 0.09,-0.73 0.09,-1.27l0 -2.4zm28.57 -0.5c1.48,0 2.52,0.33 3.13,1.01 0.62,0.68 0.92,1.72 0.92,3.15l0 10.61c0,1.45 -0.29,2.47 -0.89,3.04 -0.6,0.57 -1.53,0.85 -2.81,0.85l-1.76 0c-0.77,0 -1.4,-0.06 -1.91,-0.19 -0.51,-0.12 -0.91,-0.33 -1.21,-0.64 -0.3,-0.3 -0.52,-0.7 -0.64,-1.21 -0.13,-0.51 -0.19,-1.15 -0.19,-1.93l0 -0.78c0,-0.19 0.1,-0.34 0.29,-0.45 0.2,-0.11 0.4,-0.16 0.62,-0.16 0.21,0 0.41,0.05 0.6,0.16 0.18,0.11 0.28,0.26 0.28,0.45l0 0.75c0,0.55 0.03,1 0.1,1.33 0.08,0.34 0.2,0.6 0.39,0.79 0.19,0.19 0.45,0.31 0.77,0.37 0.33,0.07 0.75,0.1 1.24,0.1l0.99 0c0.5,0 0.9,-0.05 1.21,-0.15 0.31,-0.1 0.55,-0.25 0.72,-0.45 0.17,-0.21 0.28,-0.47 0.34,-0.8 0.05,-0.33 0.08,-0.73 0.08,-1.19l0 -10.5c0,-0.54 -0.03,-0.98 -0.1,-1.34 -0.06,-0.35 -0.18,-0.63 -0.36,-0.84 -0.17,-0.2 -0.43,-0.34 -0.77,-0.42 -0.34,-0.08 -0.78,-0.12 -1.33,-0.12l-1.2 0c-0.46,0 -0.83,0.04 -1.1,0.12 -0.26,0.08 -0.47,0.22 -0.62,0.44 -0.15,0.21 -0.25,0.49 -0.3,0.84 -0.04,0.34 -0.06,0.78 -0.06,1.32l0 0.61c0.02,0.19 -0.07,0.34 -0.27,0.44 -0.19,0.1 -0.4,0.15 -0.61,0.15 -0.22,0 -0.42,-0.05 -0.62,-0.14 -0.19,-0.09 -0.29,-0.23 -0.29,-0.42l0 -0.8c0,-1.46 0.29,-2.49 0.85,-3.1 0.57,-0.6 1.53,-0.9 2.88,-0.9l1.63 0zm29.48 18.66c-1.25,0 -2.16,-0.32 -2.75,-0.96 -0.58,-0.64 -0.88,-1.64 -0.88,-3.01l0 -10.77c0,-0.75 0.06,-1.38 0.19,-1.88 0.12,-0.51 0.34,-0.91 0.64,-1.22 0.3,-0.3 0.7,-0.51 1.21,-0.64 0.51,-0.12 1.16,-0.18 1.96,-0.18l4.11 0c0.19,0 0.35,0.07 0.46,0.21 0.12,0.14 0.18,0.3 0.18,0.48 0,0.2 -0.04,0.36 -0.12,0.51 -0.08,0.14 -0.25,0.21 -0.5,0.21l-4.13 -0.03c-0.43,0 -0.78,0.03 -1.07,0.07 -0.28,0.04 -0.51,0.16 -0.68,0.35 -0.16,0.18 -0.29,0.46 -0.37,0.82 -0.08,0.37 -0.12,0.87 -0.12,1.51l0 1.73c0.29,-0.18 0.63,-0.31 1.04,-0.4 0.41,-0.09 0.95,-0.13 1.63,-0.13l0.56 0c0.82,0 1.5,0.07 2.04,0.2 0.54,0.13 0.97,0.35 1.29,0.64 0.32,0.29 0.54,0.66 0.67,1.11 0.12,0.44 0.18,0.98 0.18,1.62l0 5.65c0,1.43 -0.27,2.47 -0.81,3.12 -0.54,0.66 -1.48,0.99 -2.81,0.99l-1.92 0zm-1.87 -4.05c0,0.53 0.03,0.97 0.09,1.32 0.07,0.34 0.18,0.62 0.34,0.82 0.16,0.21 0.38,0.35 0.66,0.42 0.29,0.07 0.66,0.1 1.12,0.1l1.18 0c0.44,0 0.82,-0.04 1.12,-0.12 0.3,-0.08 0.53,-0.21 0.7,-0.41 0.17,-0.2 0.29,-0.46 0.36,-0.8 0.07,-0.34 0.11,-0.77 0.11,-1.31l0 -5.22c0,-0.55 -0.03,-1 -0.09,-1.35 -0.07,-0.34 -0.19,-0.62 -0.39,-0.81 -0.19,-0.2 -0.47,-0.33 -0.81,-0.41 -0.35,-0.08 -0.82,-0.12 -1.4,-0.12l-0.32 0c-0.57,0 -1.03,0.04 -1.38,0.12 -0.34,0.08 -0.61,0.21 -0.81,0.41 -0.19,0.19 -0.32,0.47 -0.39,0.81 -0.06,0.35 -0.09,0.8 -0.09,1.35l0 5.2zm34.76 -14.61c0.8,0 1.44,0.08 1.92,0.25 0.48,0.17 0.85,0.43 1.1,0.77 0.26,0.35 0.43,0.78 0.51,1.3 0.08,0.51 0.12,1.12 0.12,1.81l0 14.1c0,0.15 -0.09,0.25 -0.28,0.32 -0.19,0.07 -0.39,0.11 -0.6,0.11 -0.23,0 -0.43,-0.04 -0.61,-0.11 -0.18,-0.07 -0.27,-0.17 -0.27,-0.32l0 -14.26c0,-0.52 -0.03,-0.94 -0.11,-1.28 -0.07,-0.34 -0.19,-0.6 -0.37,-0.8 -0.18,-0.2 -0.43,-0.33 -0.75,-0.4 -0.32,-0.07 -0.72,-0.11 -1.22,-0.11l-0.86 0c-0.51,0 -0.92,0.04 -1.23,0.11 -0.32,0.07 -0.56,0.2 -0.74,0.4 -0.18,0.2 -0.29,0.46 -0.34,0.8 -0.06,0.34 -0.08,0.76 -0.08,1.28l0 14.29c0,0.14 -0.1,0.24 -0.28,0.31 -0.19,0.06 -0.39,0.09 -0.6,0.09 -0.24,0 -0.44,-0.03 -0.62,-0.09 -0.18,-0.07 -0.26,-0.17 -0.26,-0.31l0 -14.29c0,-0.64 0.04,-1.21 0.12,-1.71 0.08,-0.49 0.24,-0.91 0.5,-1.25 0.26,-0.34 0.63,-0.59 1.11,-0.76 0.48,-0.17 1.12,-0.25 1.92,-0.25l1.92 0z"/>
 </g>
</svg>
